<svg width="128" height="128" viewBox="0 0 128 128" fill="none" xmlns="http://www.w3.org/2000/svg">
<path d="M116 3.00046H12C9.64031 2.97645 7.36747 3.88951 5.68019 5.53929C3.99291 7.18908 3.02901 9.44083 3 11.8005V116.22C3.03426 118.577 4.00046 120.823 5.68717 122.469C7.37388 124.114 9.64373 125.025 12 125H116C118.36 125.019 120.631 124.103 122.318 122.452C124.004 120.801 124.968 118.55 125 116.19V11.7705C124.958 9.41775 123.989 7.17673 122.304 5.53452C120.618 3.89231 118.353 2.98164 116 3.00046Z" fill="#0076B2"/>
<path d="M21.0611 48.7305H39.1711V107H21.0611V48.7305ZM30.1211 19.7305C32.1982 19.7305 34.2287 20.3465 35.9556 21.5007C37.6826 22.6549 39.0284 24.2954 39.8228 26.2146C40.6172 28.1338 40.8246 30.2455 40.4186 32.2826C40.0126 34.3197 39.0116 36.1906 37.5422 37.6586C36.0727 39.1267 34.2009 40.1259 32.1634 40.5299C30.126 40.9339 28.0144 40.7246 26.096 39.9283C24.1775 39.1321 22.5384 37.7847 21.3858 36.0567C20.2333 34.3286 19.6191 32.2976 19.6211 30.2205C19.6237 27.4374 20.7312 24.7693 22.7 22.8023C24.6689 20.8353 27.3381 19.7305 30.1211 19.7305ZM50.5311 48.7305H67.8911V56.7305H68.1311C70.5511 52.1505 76.4511 47.3205 85.2611 47.3205C103.601 47.2805 107.001 59.3505 107.001 75.0005V107H88.8911V78.6505C88.8911 71.9005 88.7711 63.2105 79.4811 63.2105C70.1911 63.2105 68.6111 70.5705 68.6111 78.2105V107H50.5311V48.7305Z" fill="white"/>
</svg>
