<svg width="512" height="116" viewBox="0 0 512 116" fill="none" xmlns="http://www.w3.org/2000/svg">
<path d="M159.89 17.93C158.952 14.4641 157.123 11.3044 154.584 8.76557C152.045 6.22677 148.885 4.39751 145.419 3.46C132.73 0 81.6659 0 81.6659 0C81.6659 0 30.5999 0.105 17.9129 3.565C14.4471 4.50266 11.2875 6.33199 8.74867 8.87078C6.20988 11.4096 4.38055 14.5692 3.44289 18.035C-0.39511 40.58 -1.88411 74.931 3.54789 96.573C4.48555 100.039 6.31488 103.198 8.85367 105.737C11.3925 108.276 14.5521 110.105 18.0179 111.043C30.7059 114.503 81.7709 114.503 81.7709 114.503C81.7709 114.503 132.836 114.503 145.524 111.043C148.99 110.105 152.149 108.276 154.688 105.737C157.227 103.198 159.056 100.039 159.994 96.573C164.041 73.997 165.289 39.667 159.889 17.931" fill="#FF0000"/>
<path d="M65.4141 81.7878L107.776 57.2518L65.4141 32.7148V81.7878Z" fill="white"/>
<path d="M491.236 33.2398C496.793 33.2398 500.987 34.2878 503.923 36.2798C506.859 38.2725 508.956 41.4185 510.215 45.7178C511.473 50.0168 511.997 55.8878 511.997 63.4378V75.7068H485.049V79.4808L485.469 89.8618C485.783 92.1688 486.308 93.8468 487.146 94.8948C487.986 95.9438 489.348 96.4678 491.131 96.4678C493.543 96.4678 495.221 95.5248 496.059 93.6378C497.003 91.7498 497.422 88.6038 497.527 84.3048L511.473 85.1438C511.578 85.7728 511.578 86.6118 511.578 87.6598C511.578 94.2658 509.795 99.1948 506.125 102.445C502.455 105.695 497.422 107.373 490.816 107.373C482.847 107.373 477.29 104.857 474.144 99.9288C470.999 94.9998 469.321 87.2398 469.321 76.8598V64.1718C469.677 46.3468 472.812 33.2918 491.236 33.2398ZM297.356 34.6028V87.1358C297.356 90.2818 297.67 92.5888 298.404 93.9518C299.893 96.8668 303.752 96.1218 305.849 94.6858C307.059 93.8671 308.035 92.7469 308.68 91.4358V34.6018H324.723V106.219H312.14L310.777 97.4108H310.463C307.003 104.017 301.864 107.372 295.049 107.372C284.559 107.346 281.992 99.7878 281.381 92.1118L281.341 91.5708C281.265 90.4082 281.221 89.2438 281.208 88.0788V34.6028H297.356ZM380.088 34.6028V87.1358C380.088 90.2818 380.402 92.5888 381.136 93.9518C382.626 96.8668 386.484 96.1218 388.581 94.6858C389.791 93.8671 390.767 92.7469 391.412 91.4358V34.6018H407.455V106.219H394.872L393.509 97.4108H393.195C389.735 104.017 384.596 107.372 377.781 107.372C367.291 107.346 364.724 99.7878 364.113 92.1118L364.073 91.5708C363.997 90.4082 363.953 89.2438 363.94 88.0788V34.6028H380.088ZM250.799 33.2398C256.042 33.2398 260.341 34.2878 263.487 36.4898C266.632 38.6918 269.044 42.0478 270.512 46.6608C271.98 51.2748 272.714 57.4608 272.714 65.1158V75.4958C272.714 83.1508 271.98 89.2328 270.512 93.8458C269.044 98.4608 266.737 101.816 263.487 104.018C260.237 106.115 255.832 107.268 250.38 107.268C244.717 107.373 240.313 106.22 237.063 104.123C233.813 101.921 231.505 98.5648 230.143 93.9518C228.779 89.3378 228.15 83.2558 228.15 75.6018V65.2198C228.15 57.5648 228.884 51.2738 230.457 46.6598C232.03 41.9418 234.441 38.5858 237.797 36.4898C241.152 34.3918 245.451 33.2388 250.799 33.2388M432.621 4.50879V42.2568H432.726C434.194 39.5308 436.081 37.3288 438.703 35.6508C441.152 34.0054 444.036 33.1292 446.986 33.1348C450.866 33.1348 453.802 34.1828 456.004 36.1748C458.206 38.2728 459.779 41.5228 460.722 46.0318C461.637 50.3998 462.157 56.4408 462.189 64.0588L462.19 64.8018V76.1258C462.19 86.7158 460.827 94.5808 458.31 99.6138C455.69 104.647 451.705 107.164 446.252 107.164C443.212 107.164 440.485 106.43 437.969 105.067C435.744 103.769 433.899 101.91 432.619 99.6748L432.411 99.2988H432.097L430.419 106.115H417.102V4.50979L432.621 4.50879ZM368.448 8.17879V21.1798H352.51V106.219H336.782V21.1808H320.739V8.17979L368.448 8.17879ZM195.539 8.17879L195.549 8.21879C195.702 8.89979 197.822 18.3248 200.154 29.3058L200.338 30.1758L200.616 31.4908L200.802 32.3738L200.895 32.8168L201.081 33.7048L201.174 34.1498L201.359 35.0408L201.629 36.3438C203.204 43.9478 204.707 51.5738 205.606 57.0418H206.026C206.887 52.1368 208.138 45.8598 209.472 39.4508L209.822 37.7768C209.997 36.9381 210.174 36.1008 210.352 35.2648L210.626 33.9678C212.438 25.4746 214.303 16.9931 216.223 8.52379L216.253 8.38879L216.301 8.17879H232.344L213.784 74.3438V106.115H197.951V74.4478H197.846L179.496 8.17779L195.539 8.17879ZM250.484 44.3538C248.282 44.3538 246.814 45.5078 245.871 47.9198C244.928 50.3318 244.508 54.0008 244.508 59.1398V81.4738C244.508 86.7168 244.927 90.5958 245.766 92.9038C246.605 95.2105 248.178 96.3638 250.484 96.3638C252.686 96.3638 254.259 95.2105 255.203 92.9038C256.147 90.5958 256.566 86.7168 256.566 81.4738V59.1388C256.566 54.0008 256.146 50.2258 255.203 47.9188C254.259 45.5078 252.686 44.3538 250.484 44.3538ZM435.452 46.4518C434.174 47.6318 433.265 49.0868 432.724 50.9058L432.621 51.2748V91.9588C433.921 94.1608 435.767 95.6288 439.017 95.7338C440.694 95.7338 442.058 95.1048 443.107 93.8468C444.155 92.5888 444.889 90.4915 445.308 87.5548C445.711 84.7368 445.921 80.8555 445.937 75.9108V65.9548C445.937 60.2928 445.727 55.9938 445.413 52.9528C444.993 49.9118 444.47 47.7098 443.526 46.4518C441.701 43.8298 437.759 43.8618 435.452 46.4518ZM490.922 44.0398C489.139 44.1445 487.88 44.6688 487.146 45.6128C486.308 46.6608 485.783 48.2338 485.469 50.5408C485.16 52.8008 485.054 60.7008 485.049 61.0168V66.1648H496.793V61.6248V61.7118C496.786 63.2988 496.753 60.7908 496.681 57.7118L496.671 57.2978C496.605 54.5918 496.509 51.5748 496.374 50.5408C496.059 48.1288 495.534 46.4508 494.696 45.5078C493.857 44.5638 492.599 44.0398 490.921 44.0398" fill="#282828"/>
</svg>
